<?xml version="1.0" encoding="utf-8"?>
<!-- Generator: Adobe Illustrator 16.0.4, SVG Export Plug-In . SVG Version: 6.00 Build 0)  -->
<!DOCTYPE svg PUBLIC "-//W3C//DTD SVG 1.1//EN" "http://www.w3.org/Graphics/SVG/1.1/DTD/svg11.dtd">
<svg version="1.1" id="レイヤー_1" xmlns="http://www.w3.org/2000/svg" xmlns:xlink="http://www.w3.org/1999/xlink" x="0px"
	 y="0px" width="127px" height="275px" viewBox="0 0 127 275" enable-background="new 0 0 127 275" xml:space="preserve">
<g>
	<path fill-rule="evenodd" clip-rule="evenodd" d="M56.502,151.643c0.242,0.723,0.683,1.228,1.306,1.574
		c0.045,0.024,0.083,0.074,0.13,0.084c0.776,0.166,1.549,0.416,2.334,0.471c1.157,0.08,2.325,0.033,3.487,0.007
		c0.257-0.005,0.512-0.145,0.764-0.232c0.113-0.038,0.213-0.129,0.326-0.15c0.822-0.157,1.66-0.252,2.467-0.466
		c0.712-0.189,1.375-0.562,2.087-0.754c1.23-0.332,1.422-1.618,2.236-2.323c0.057-0.049,0.086-0.158,0.084-0.239
		c-0.014-0.749,0.44-1.31,0.759-1.926c0.33-0.637,0.634-1.287,0.976-1.916c0.063-0.115,0.312-0.258,0.378-0.221
		c0.671,0.378,1.198,0.113,1.677-0.327c0.519,0.28,1.028,0.525,1.502,0.829c0.185,0.119,0.34,0.352,0.414,0.564
		c0.235,0.676,0.42,1.361,0.037,2.062c-0.075,0.137-0.042,0.342-0.032,0.514c0.031,0.631-0.203,1.062-0.777,1.398
		c-0.949,0.555-1.841,1.211-2.772,1.798c-0.372,0.235-0.789,0.397-1.184,0.601c-0.642,0.331-0.842,0.934-0.938,1.584
		c-0.188,1.296-0.397,2.591-0.518,3.894c-0.062,0.663-0.062,1.376,0.125,2.003c0.218,0.73-0.06,1.355-0.124,2.027
		c-0.043,0.46-0.136,0.929-0.089,1.383c0.155,1.51,0.448,3.004,0.416,4.535c-0.012,0.512,0.169,1.025,0.178,1.54
		c0.008,0.479-0.055,0.97-0.159,1.438c-0.2,0.893,0.137,1.71,0.267,2.56c0.063,0.42,0.044,0.855,0.027,1.282
		c-0.023,0.603-0.238,1.248-0.084,1.794c0.234,0.834-0.013,1.575-0.124,2.35c-0.043,0.303-0.16,0.598-0.276,0.884
		c-0.231,0.567-0.096,1.034,0.389,1.364c0.771,0.525,1.552,1.03,2,1.91c0.485,0.952,1.027,1.876,1.54,2.814
		c0.516,0.943,1.083,1.863,1.519,2.843c0.353,0.796,0.558,1.66,0.793,2.503c0.045,0.16-0.028,0.387-0.116,0.543
		c-0.35,0.631-0.687,1.277-1.11,1.857c-0.283,0.388-0.705,0.674-1.064,1.005c-0.05-0.026-0.1-0.052-0.149-0.077
		c0.021-0.188-0.008-0.398,0.066-0.562c0.334-0.732,0.676-1.464,1.057-2.173c0.265-0.489,0.229-0.938,0.046-1.44
		c-0.275-0.756-0.472-1.54-0.734-2.302c-0.104-0.301-0.275-0.584-0.453-0.852c-0.426-0.645-0.844-1.297-1.321-1.902
		c-0.603-0.766-1.232-1.516-1.908-2.218c-0.51-0.529-1.513-0.398-1.909,0.218c-0.464,0.719-0.822,1.513-1.329,2.197
		c-0.428,0.575-0.92,1.248-1.537,1.502c-0.913,0.377-1.411,1.131-2.121,1.678c-0.373,0.288-0.957,0.326-1.456,0.418
		c-0.608,0.113-1.264,0.062-1.834,0.266c-0.828,0.295-1.575,0.816-2.402,1.117c-0.454,0.166-1.017,0.168-1.505,0.09
		c-1.157-0.188-2.174-0.75-2.836-1.705c-0.445-0.643-0.698-1.449-0.903-2.218c-0.082-0.304,0.157-0.722,0.316-1.056
		c0.278-0.586,0.6-1.152,0.926-1.713c0.058-0.1,0.232-0.129,0.349-0.195c0.132-0.076,0.308-0.128,0.377-0.242
		c0.356-0.596,0.973-0.793,1.508-1.146c0.749-0.493,1.508-0.663,2.34-0.795c0.304-0.048,0.562-0.335,0.866-0.438
		c0.332-0.114,0.696-0.127,1.041-0.211c0.282-0.069,0.62-0.105,0.819-0.284c0.478-0.43,1.056-0.491,1.633-0.579
		c0.615-0.094,1.237-0.218,1.854-0.203c0.52,0.012,1.05,0.156,1.546,0.327c1.039,0.358,2.456-0.165,2.306-1.501
		c-0.138-1.235,0.169-2.432,0.394-3.639c0.085-0.465-0.082-0.975-0.124-1.464c-0.033-0.392-0.061-0.783-0.073-1.175
		c-0.007-0.275,0.041-0.553,0.019-0.826c-0.061-0.736-0.135-1.474-0.229-2.207c-0.046-0.369-0.154-0.729-0.215-1.096
		c-0.031-0.183-0.022-0.372-0.026-0.559c-0.009-0.672-0.03-1.345-0.019-2.018c0.01-0.516,0.057-1.031,0.098-1.546
		c0.046-0.563,0.109-1.128,0.156-1.691c0.007-0.081-0.008-0.202-0.061-0.245c-0.515-0.422-0.307-0.931-0.202-1.438
		c0.046-0.217,0.096-0.471,0.027-0.668c-0.33-0.953,0.057-1.837,0.176-2.755c0.108-0.836,0.093-1.698,0.037-2.542
		c-0.028-0.439-0.424-0.717-0.87-0.632c-0.911,0.172-1.81,0.418-2.713,0.633c-0.167,0.039-0.333,0.113-0.499,0.113
		c-1.197-0.001-2.396,0.005-3.593-0.033c-0.947-0.03-1.895-0.113-2.839-0.188c-0.584-0.047-1.114-0.229-1.561-0.636
		c-0.487-0.444-1.007-0.854-1.491-1.302C55.945,152.779,55.986,151.973,56.502,151.643z M60.317,189.07
		c0.851-0.181,1.567-0.321,2.278-0.488c0.37-0.088,0.82-0.121,1.078-0.354c1.13-1.016,2.201-2.096,3.294-3.153
		c0.723-0.699,0.732-0.696,1.026-1.663c0.358-1.173-0.235-1.756-1.319-1.799c-0.661-0.025-1.339,0.363-2.008,0.571
		c-0.255,0.079-0.499,0.216-0.758,0.245c-0.358,0.042-0.728,0.033-1.089-0.002c-0.466-0.044-0.767,0.152-1.069,0.492
		c-0.301,0.338-0.683,0.614-1.064,0.863c-0.392,0.256-0.866,0.392-1.23,0.676c-0.641,0.498-1.146,1.127-1.513,1.865
		c-0.259,0.521-0.092,1.719,0.378,2.045c0.237,0.165,0.574,0.184,0.86,0.283C59.588,188.794,59.991,188.949,60.317,189.07z"/>
	<path fill-rule="evenodd" clip-rule="evenodd" d="M25.848,83.078c-0.16-0.379-0.402-0.746-0.46-1.141
		c-0.082-0.555-0.029-1.129-0.034-1.695c-0.002-0.338,0.011-0.675-0.009-1.011c-0.034-0.609-0.255-1.234,0.259-1.774
		c0.101-0.105,0.11-0.324,0.112-0.491c0.01-1.023,0.025-2.048-0.006-3.071c-0.012-0.345-0.155-0.687-0.238-1.03
		c-0.02-0.083-0.062-0.169-0.053-0.25c0.079-0.703,0.168-1.405,0.251-2.107c0.021-0.188,0.048-0.379,0.048-0.568
		c0.004-1.146-0.002-2.291,0.001-3.436c0.004-0.733-0.053-1.44,0.443-2.121c0.452-0.62,0.32-0.844-0.163-1.425
		c-0.151-0.183-0.274-0.458-0.273-0.689c0.006-1.403,0.069-2.807,0.075-4.21c0.004-0.935,0.048-1.89-0.128-2.796
		c-0.121-0.622-0.545-1.207-0.918-1.75c-0.227-0.329-0.347-0.537,0.021-0.811c0.401-0.298,0.354-0.713,0.271-1.138
		c-0.075-0.371-0.129-0.746-0.191-1.119c-0.014-0.085,0.001-0.198-0.048-0.251c-0.492-0.538-0.346-1.199-0.386-1.83
		c-0.014-0.223-0.113-0.467-0.245-0.651c-0.4-0.56-0.258-1.26,0.354-1.534c0.078-0.035,0.229-0.03,0.28,0.022
		c0.511,0.507,1.143,0.975,0.962,1.827c-0.165,0.788,0.042,1.438,0.53,2.058c0.593,0.754,0.909,1.612,0.734,2.593
		c-0.142,0.808,0.151,1.511,0.612,2.12c0.389,0.515,0.308,1.015,0.226,1.574c-0.07,0.482-0.041,0.98-0.046,1.471
		c-0.006,0.547,0.005,1.095,0,1.643c-0.002,0.12-0.059,0.239-0.055,0.358c0.027,0.948,0.058,1.897,0.101,2.845
		c0.005,0.132,0.036,0.311,0.125,0.383c0.447,0.365,0.395,0.852,0.386,1.339c-0.011,0.607,0.037,1.219-0.021,1.821
		c-0.092,0.956-0.129,1.9-0.011,2.86c0.035,0.292-0.222,0.614-0.312,0.932c-0.097,0.334-0.192,0.676-0.22,1.02
		c-0.033,0.422,0.005,0.85,0.014,1.275c0.014,0.635,0.028,1.27,0.042,1.905c0.013,0.587,0.013,1.174,0.041,1.761
		c0.012,0.216,0.019,0.492,0.146,0.633c0.344,0.382,0.372,0.761,0.156,1.194c-0.016,0.031-0.037,0.065-0.035,0.097
		c0.057,0.929,0.094,1.86,0.435,2.747c0.159,0.414,0.331,0.836,0.395,1.27c0.099,0.682,0.119,1.375,0.153,2.066
		c0.01,0.197,0.018,0.443-0.085,0.589c-0.396,0.569-0.405,1.114-0.148,1.755c0.105,0.261-0.034,0.659-0.147,0.963
		c-0.252,0.68-0.749,1.051-1.3,0.971c-0.177-0.026-0.423-0.197-0.473-0.354c-0.131-0.406-0.124-0.857-0.258-1.261
		c-0.294-0.892-0.656-1.761-0.958-2.651c-0.093-0.271-0.081-0.576-0.116-0.866C25.738,83.117,25.793,83.098,25.848,83.078z"/>
	<path fill-rule="evenodd" clip-rule="evenodd" d="M22.091,45.75c-0.323,0-0.531-0.004-0.74,0.001
		c-0.563,0.014-0.79,0.223-0.78,0.796c0.006,0.379-0.113,0.497-0.505,0.532c-0.268,0.024-0.531,0.26-0.771,0.438
		c-0.235,0.175-0.436,0.464-0.755,0.187c-0.3-0.262-0.594-0.52-0.378-1.018c0.251-0.58,0.417-1.196,0.641-1.789
		c0.062-0.165,0.185-0.317,0.31-0.447c0.299-0.309,0.617-0.598,0.925-0.899c0.169-0.168,0.333-0.343,0.496-0.518
		c0.117-0.125,0.331-0.258,0.327-0.383c-0.014-0.584,0.456-0.769,0.774-1.112c0.665-0.721,1.26-1.51,1.841-2.302
		c0.121-0.164,0.099-0.47,0.069-0.701c-0.082-0.651,0.143-1.147,0.56-1.653c0.673-0.818,1.32-1.674,1.844-2.592
		c0.323-0.567,0.34-1.302,0.603-1.915c0.172-0.404,0.546-0.719,0.814-1.083c0.312-0.422,0.611-0.854,0.909-1.286
		c0.192-0.279,0.336-0.604,0.572-0.839c0.31-0.31,0.413-0.633,0.402-1.067c-0.034-1.351-0.052-2.704-0.018-4.055
		c0.025-1.034,1.521-2.103,2.528-1.842c0.631,0.163,1.263,0.339,1.87,0.574c0.172,0.066,0.351,0.349,0.367,0.547
		c0.076,0.856,0.012,1.657-0.634,2.372c-0.354,0.392-0.435,1.019-0.688,1.515c-0.201,0.392-0.465,0.753-0.727,1.11
		c-0.586,0.8-1.231,1.562-1.76,2.397c-0.204,0.32-0.132,0.805-0.229,1.203c-0.1,0.409-0.139,0.931-0.408,1.178
		c-0.552,0.501-0.965,1.069-1.328,1.701c-0.126,0.22-0.358,0.375-0.515,0.582c-0.294,0.394-0.687,0.734-0.665,1.304
		c0.006,0.145-0.112,0.324-0.222,0.44c-0.538,0.567-1.053,1.139-1.088,1.982c-0.004,0.097-0.065,0.198-0.12,0.283
		c-0.271,0.416-0.477,0.911-0.839,1.221c-0.558,0.478-0.774,1.136-1.043,1.741c-0.167,0.377-0.112,0.975,0.075,1.36
		c0.296,0.607,0.336,0.887-0.101,1.379C23.232,45.624,22.706,45.931,22.091,45.75z"/>
	<path fill-rule="evenodd" clip-rule="evenodd" d="M81.737,77.224c-0.042,0.131-0.086,0.279-0.135,0.426
		c-0.139,0.416-0.053,0.765,0.234,1.108c0.164,0.199,0.218,0.486,0.344,0.722c0.174,0.323,0.403,0.62,0.545,0.955
		c0.137,0.322,0.322,0.705,0.26,1.014c-0.184,0.889,0.338,1.527,0.691,2.205c0.433,0.836,0.912,1.603,0.493,2.611
		c-0.216,0.519,0.044,1.021,0.379,1.444c0.312,0.393,0.684,0.743,0.951,1.163c0.122,0.192,0.147,0.543,0.058,0.754
		c-0.158,0.369-0.184,0.687-0.012,1.043c0.23,0.48,0.19,0.957-0.146,1.367c-0.367,0.448-0.769,0.868-1.168,1.288
		c-0.075,0.08-0.209,0.128-0.322,0.142c-0.782,0.094-2.037-0.694-2.309-1.436c-0.118-0.318-0.062-0.555,0.236-0.763
		c0.149-0.105,0.322-0.323,0.314-0.481c-0.034-0.692,0.328-1.249,0.552-1.853c0.019-0.049,0.059-0.096,0.059-0.144
		c-0.005-0.829,0.081-1.644,0.224-2.462c0.042-0.236-0.277-0.525-0.404-0.803c-0.35-0.762-0.729-1.514-1.017-2.299
		c-0.291-0.797-0.721-1.544-0.728-2.453c-0.004-0.44-0.354-0.871-0.501-1.32c-0.101-0.304-0.145-0.634-0.171-0.955
		c-0.045-0.57-0.044-1.146-0.502-1.584c-0.036-0.034-0.081-0.092-0.075-0.133c0.069-0.571-0.314-0.912-0.617-1.311
		c-0.096-0.127-0.1-0.41-0.027-0.565c0.267-0.562,0.275-1.063-0.077-1.607c-0.656-1.013-0.713-2.153-0.638-3.324
		c0.024-0.381-0.109-0.771-0.165-1.157c-0.036-0.238-0.103-0.481-0.084-0.716c0.08-1.014,0.235-2.024,0.265-3.039
		c0.018-0.594-0.172-1.193-0.222-1.793c-0.024-0.28,0.076-0.569,0.092-0.856c0.022-0.417,0.134-0.876,0-1.243
		c-0.241-0.659-0.219-1.233,0.144-1.815c0.185-0.298,0.75-0.323,1.05,0.005c0.619,0.677,1.158,1.423,1.341,2.337
		c0.062,0.307-0.162,0.659-0.176,0.994c-0.029,0.742,0.053,1.492-0.027,2.227c-0.063,0.588-0.164,1.163,0.02,1.734
		c0.151,0.47,0.231,0.915,0.01,1.393c-0.073,0.157-0.074,0.406,0,0.562c0.417,0.866,0.101,1.679-0.091,2.519
		c-0.071,0.314,0.056,0.676,0.1,1.015c0.067,0.524,0.173,1.046,0.205,1.572c0.035,0.604,0.073,1.136,0.486,1.686
		C81.53,75.868,81.558,76.587,81.737,77.224z"/>
	<path fill-rule="evenodd" clip-rule="evenodd" d="M53.671,258.908c-0.369-0.18-0.786-0.353-1.172-0.578
		c-0.279-0.162-0.52-0.392-0.772-0.596c-0.253-0.203-0.505-0.407-0.749-0.62c-0.165-0.146-0.401-0.28-0.458-0.466
		c-0.143-0.475-0.548-0.581-0.899-0.791c-0.285-0.168-0.658-0.34-0.773-0.605c-0.361-0.826-0.913-1.49-1.511-2.139
		c-0.169-0.184-0.268-0.434-0.401-0.651c-0.063-0.103-0.109-0.247-0.203-0.293c-0.545-0.271-1.098-0.525-1.655-0.771
		c-0.449-0.199-0.908-0.375-1.361-0.564c-0.546-0.227-1.084-0.47-1.635-0.683c-0.322-0.125-0.659-0.213-0.994-0.301
		c-0.198-0.053-0.409-0.121-0.604-0.099c-0.367,0.043-0.681,0.035-0.933-0.293c-0.069-0.089-0.242-0.119-0.373-0.137
		c-0.676-0.09-1.176-1.037-0.829-1.623c0.039-0.066,0.282-0.062,0.406-0.02c0.412,0.138,0.815,0.443,1.219,0.439
		c1.228-0.014,2.358,0.34,3.491,0.725c0.141,0.049,0.27,0.156,0.38,0.262c0.354,0.336,0.752,0.508,1.229,0.668
		c0.583,0.197,1.041,0.761,1.554,1.166c0.604,0.477,1.21,0.953,1.814,1.43c0.041,0.031,0.091,0.053,0.13,0.086
		c0.97,0.853,1.996,1.65,2.89,2.576c0.739,0.766,2.246,0.602,2.894,0.136c0.472-0.341,0.91-0.616,1.544-0.722
		c0.595-0.099,1.237-0.509,1.509-1.202c0.05-0.127,0.107-0.254,0.187-0.364c0.384-0.547,0.772-1.091,1.17-1.629
		c0.064-0.087,0.177-0.139,0.267-0.207c0.062,0.108,0.191,0.23,0.173,0.323c-0.084,0.433-0.143,0.89-0.333,1.279
		c-0.791,1.62-2.088,2.856-3.261,4.188c-0.314,0.357-0.531,0.799-0.804,1.195c-0.086,0.125-0.191,0.246-0.313,0.334
		C54.211,258.566,53.915,258.746,53.671,258.908z"/>
	<path fill-rule="evenodd" clip-rule="evenodd" d="M52.116,50.667c0.166-0.357,0.336-0.713,0.497-1.072
		c0.374-0.834,0.598-1.689,0.408-2.617c-0.05-0.241-0.017-0.5-0.009-0.751c0.02-0.535,0.062-1.069,0.068-1.604
		c0.004-0.503-0.045-1.002,0.318-1.434c0.096-0.115,0.096-0.325,0.107-0.495c0.059-0.845,0.111-1.69,0.152-2.537
		c0.016-0.328,0.06-0.674-0.022-0.981c-0.141-0.528-0.075-0.969,0.244-1.415c0.246-0.344,0.587-0.413,0.895-0.133
		c0.622,0.567,0.936,1.336,1.327,2.047c0.085,0.152-0.015,0.478-0.131,0.655c-0.348,0.525-0.382,1.456-0.075,2.006
		c0.085,0.152,0.082,0.43-0.002,0.586c-0.282,0.524-0.234,1.113,0.062,1.651c0.122,0.22,0.059,0.569,0.013,0.847
		c-0.053,0.311-0.26,0.607-0.266,0.912c-0.028,1.489,0.004,2.979-0.023,4.467c-0.007,0.309-0.208,0.608-0.261,0.922
		c-0.057,0.343-0.141,0.727-0.046,1.042c0.194,0.644-0.191,1.49-1.078,1.255c-0.302-0.08-0.517-0.534-0.743-0.838
		c-0.274-0.369-0.472-0.809-0.79-1.129C52.217,51.504,52.244,51.505,52.116,50.667z"/>
	<path fill-rule="evenodd" clip-rule="evenodd" d="M75.104,52.228c0.58,0.219,1.011-0.308,1.54-0.566
		c0.271-0.133,0.572-0.219,0.868-0.287c0.66-0.152,1.328-0.273,1.764-0.875c0.253-0.35,0.585-0.504,1.03-0.458
		c0.378,0.039,0.765-0.013,1.144,0.015c0.789,0.057,1.432-0.291,1.94-0.81c0.484-0.494,1.049-0.615,1.678-0.677
		c0.822-0.081,1.731,0.005,2.436-0.331c0.832-0.396,1.63-0.305,2.454-0.376c0.169-0.014,0.349-0.132,0.488-0.245
		c0.439-0.354,0.927-0.364,1.386-0.063c0.232,0.152,0.521,0.216,0.78,0.327c0.136,0.058,0.352,0.107,0.377,0.201
		c0.036,0.134-0.021,0.373-0.125,0.451c-0.698,0.523-1.471,0.959-2.122,1.535c-0.608,0.54-1.194,0.477-1.868,0.261
		c-0.183-0.058-0.407-0.004-0.61,0.023c-0.782,0.106-1.561,0.271-2.347,0.32c-0.611,0.039-1.157,0.159-1.629,0.556
		c-0.064,0.055-0.145,0.131-0.217,0.13c-1.237-0.021-2.28,0.685-3.439,0.967c-0.652,0.158-1.123,0.417-1.733-0.041
		c-0.139-0.104-0.584,0.047-0.784,0.208c-0.556,0.451-1.11,0.877-1.829,1.026c-0.018,0.004-0.039,0.006-0.049,0.016
		c-0.674,0.663-1.372,0.618-2.068,0.053c-0.205-0.166-0.547-0.461-0.504-0.576c0.121-0.318,0.207-0.771,0.704-0.783
		C74.577,52.223,74.785,52.228,75.104,52.228z"/>
	<path fill-rule="evenodd" clip-rule="evenodd" d="M61.873,134.192c0.969-0.135,2.015-0.088,2.885-0.456
		c0.877-0.371,1.72-0.396,2.577-0.327c0.734,0.06,1.494,0.244,2.077,0.784c0.31,0.286,0.25,0.664-0.114,0.896
		c-0.198,0.127-0.377,0.293-0.586,0.396c-0.134,0.065-0.367,0.122-0.454,0.053c-0.73-0.578-1.433-0.58-2.155,0.007
		c-0.08,0.064-0.232,0.054-0.351,0.054c-0.59-0.002-1.182,0.022-1.768-0.028c-0.572-0.049-1.02,0.125-1.371,0.561
		c-0.211,0.263-0.407,0.326-0.694,0.08c-0.143-0.12-0.371-0.185-0.562-0.19c-0.589-0.016-1.185-0.038-1.768,0.03
		c-0.689,0.081-1.267-0.138-1.77-0.55c-0.198-0.162-0.278-0.467-0.412-0.706c0.231-0.117,0.45-0.285,0.694-0.342
		c0.57-0.13,1.15-0.237,1.732-0.298c0.67-0.07,1.346-0.081,2.019-0.117C61.86,134.09,61.867,134.141,61.873,134.192z"/>
	<path fill-rule="evenodd" clip-rule="evenodd" d="M93.725,246.854c-0.11-0.211-0.3-0.406-0.269-0.556
		c0.044-0.212,0.224-0.417,0.388-0.581c0.585-0.584,0.633-1.213,0.236-1.957c-0.276-0.52-0.428-1.105-0.653-1.652
		c-0.171-0.412-0.396-0.803-0.552-1.219c-0.098-0.258-0.188-0.557-0.15-0.819c0.093-0.667-0.129-1.194-0.39-1.807
		c-0.347-0.813-0.95-1.362-1.44-2.027c-0.061-0.082-0.009-0.246-0.009-0.372c0.138,0.013,0.309-0.023,0.405,0.045
		c1.233,0.865,2.138,2.031,2.945,3.28c0.036,0.058,0.086,0.124,0.086,0.187c0.002,1.035,0.802,1.803,0.938,2.795
		c0.017,0.121,0.146,0.229,0.23,0.338c0.323,0.423,0.721,0.811,0.614,1.422c-0.013,0.075,0.028,0.179,0.078,0.242
		c0.42,0.546,0.225,1.043-0.196,1.43c-0.316,0.291-0.737,0.473-1.121,0.684C94.538,246.467,94.194,246.622,93.725,246.854z"/>
	<path fill-rule="evenodd" clip-rule="evenodd" d="M75.401,15.045c-0.218,0.53-0.38,1.05-0.637,1.518
		c-0.267,0.489-0.979,0.74-1.484,0.516c-0.236-0.105-0.385-0.413-0.569-0.632c-0.209-0.251-0.431-0.494-0.614-0.763
		c-0.148-0.219-0.239-0.476-0.367-0.711c-0.192-0.355-0.373-0.721-0.597-1.057c-0.261-0.392-0.251-0.739,0.062-1.084
		c0.336-0.371,0.662-0.748,1.005-1.11c0.076-0.082,0.253-0.185,0.308-0.152c0.617,0.375,1.277,0.711,1.807,1.19
		c0.315,0.285,0.426,0.801,0.619,1.216C75.084,14.304,75.223,14.638,75.401,15.045z"/>
	<path fill-rule="evenodd" clip-rule="evenodd" d="M104.479,25.152c-0.474,0.092-0.793,0.177-1.116,0.206
		c-0.129,0.011-0.315-0.07-0.39-0.172c-0.049-0.067,0.021-0.271,0.097-0.37c0.178-0.233,0.361-0.478,0.594-0.649
		c0.359-0.264,0.733-0.249,1.08,0.08c0.418,0.397,1.007,0.409,1.46,0.059c0.609-0.472,1.24-0.82,2.074-0.739
		c0.738,0.072,1.49,0.017,2.235,0.013c0.779-0.003,1.303,0.779,0.907,1.469c-0.249,0.433-0.671,0.766-1.026,1.135
		c-0.105,0.109-0.27,0.166-0.365,0.28c-0.278,0.338-0.558,0.28-0.854,0.041c-0.106-0.086-0.233-0.262-0.318-0.244
		c-0.745,0.158-1.214-0.508-1.83-0.606C106.12,25.509,105.167,25.668,104.479,25.152z"/>
	<path fill-rule="evenodd" clip-rule="evenodd" d="M59.505,30.561c0.124-0.07,0.344-0.201,0.569-0.325
		c0.368-0.204,0.751-0.386,1.107-0.609c0.523-0.33,1.013-0.714,1.545-1.026c0.498-0.292,1.008-0.551,1.643-0.31
		c0.31,0.117,0.684,0.079,1.028,0.08c0.78,0.004,1.561-0.013,2.342-0.016c0.265-0.001,0.562-0.016,0.552,0.372
		c-0.012,0.381-0.244,0.565-0.612,0.554c-0.17-0.005-0.34-0.06-0.505-0.108c-0.47-0.136-0.888-0.082-1.249,0.281
		c-0.104,0.105-0.265,0.239-0.389,0.229c-0.944-0.081-1.39,0.843-2.182,1.057c-0.257,0.069-0.504,0.17-0.756,0.252
		c-0.03,0.01-0.07,0.004-0.104-0.001c-0.976-0.149-1.771,0.125-2.456,0.875c-0.504,0.551-0.562,0.505-1.007-0.088
		c-0.121-0.162-0.277-0.338-0.304-0.524C58.629,30.544,58.837,30.404,59.505,30.561z"/>
	<path fill-rule="evenodd" clip-rule="evenodd" d="M75.234,29.055c-0.516-0.068-0.994-0.118-1.466-0.203
		c-0.107-0.019-0.195-0.158-0.291-0.241c0.075-0.083,0.142-0.179,0.23-0.244c0.151-0.111,0.309-0.219,0.478-0.298
		c0.475-0.226,0.898-0.63,1.512-0.214c0.225,0.152,0.638,0.003,0.955,0.05c0.227,0.033,0.439,0.164,0.657,0.251
		c-0.173,0.229-0.305,0.589-0.527,0.66C76.282,28.972,75.738,28.985,75.234,29.055z"/>
	<path fill-rule="evenodd" clip-rule="evenodd" d="M88.906,27.731c-0.268-0.064-0.542-0.109-0.8-0.201
		c-0.124-0.044-0.32-0.203-0.304-0.262c0.037-0.14,0.176-0.352,0.283-0.358c0.61-0.037,1.123-0.215,1.576-0.659
		c0.119-0.118,0.498,0.03,0.758,0.056c-0.061,0.261-0.034,0.624-0.197,0.763c-0.367,0.311-0.829,0.51-1.251,0.754
		C88.949,27.793,88.927,27.762,88.906,27.731z"/>
	<path fill-rule="evenodd" clip-rule="evenodd" d="M69.78,27.872c0.128,0.08,0.267,0.145,0.381,0.242
		c0.406,0.346,0.731,0.332,1.126-0.05c0.123-0.119,0.277-0.206,0.406-0.319c0.23-0.202,0.463-0.147,0.54,0.1
		c0.047,0.149-0.064,0.419-0.194,0.537c-0.232,0.21-0.523,0.361-0.807,0.506c-0.144,0.074-0.388,0.172-0.473,0.108
		c-0.391-0.294-0.741-0.641-1.104-0.969C69.696,27.975,69.738,27.924,69.78,27.872z"/>
	<path fill-rule="evenodd" clip-rule="evenodd" d="M97.113,24.739c0.142,0.159,0.294,0.257,0.285,0.336
		c-0.015,0.119-0.144,0.224-0.223,0.334c-0.099-0.095-0.243-0.175-0.278-0.29C96.874,25.043,97.005,24.919,97.113,24.739z"/>
</g>
</svg>
